<?xml version="1.0" standalone="no"?>
<!DOCTYPE svg PUBLIC "-//W3C//DTD SVG 20010904//EN"
 "http://www.w3.org/TR/2001/REC-SVG-20010904/DTD/svg10.dtd">
<svg version="1.0" xmlns="http://www.w3.org/2000/svg"
 width="700.000000pt" height="700.000000pt" viewBox="0 0 700.000000 700.000000"
 preserveAspectRatio="xMidYMid meet">
<metadata>
Created by potrace 1.14, written by Peter Selinger 2001-2017
</metadata>
<g transform="translate(0.000000,700.000000) scale(0.100000,-0.100000)"
fill="#000000" stroke="none">
<path d="M5389 6266 c-2 -2 -31 -7 -64 -10 -33 -4 -67 -9 -75 -11 -8 -2 -37
-7 -65 -10 -27 -3 -75 -9 -105 -15 -30 -5 -75 -12 -100 -15 -25 -3 -56 -8 -70
-10 -14 -2 -41 -7 -60 -10 -19 -2 -62 -9 -95 -15 -33 -5 -132 -21 -220 -36
-88 -14 -243 -41 -345 -60 -102 -20 -196 -37 -210 -40 -14 -2 -45 -9 -70 -14
-25 -5 -56 -12 -70 -14 -136 -23 -680 -157 -1025 -252 -203 -57 -716 -206
-1040 -303 -121 -36 -413 -119 -550 -155 -328 -89 -419 -127 -575 -247 -173
-132 -288 -292 -354 -494 -39 -122 -54 -217 -54 -358 0 -135 24 -273 66 -387
11 -30 38 -122 61 -205 22 -82 79 -289 127 -460 47 -170 87 -314 88 -320 1 -5
8 -28 14 -50 7 -22 39 -134 73 -250 33 -115 73 -250 89 -300 123 -384 182
-561 250 -739 34 -90 74 -127 213 -195 120 -59 431 -192 742 -317 88 -36 169
-69 180 -74 11 -5 121 -51 245 -101 124 -50 230 -94 235 -99 30 -23 158 -28
230 -10 22 6 47 12 55 14 37 10 324 111 525 184 121 44 332 121 468 171 509
187 786 280 1247 421 129 39 285 86 345 105 379 115 629 195 637 203 7 7 109
394 121 462 3 14 12 52 20 85 9 33 18 71 20 85 3 14 10 45 17 70 7 25 13 52
15 60 2 8 15 67 30 130 14 63 28 126 31 140 5 27 49 220 89 390 24 102 142
675 152 735 2 17 13 73 23 125 25 124 82 455 119 694 33 211 35 323 6 461 -33
158 -83 281 -172 419 -58 89 -264 294 -378 374 -148 105 -323 180 -480 208
-16 3 -79 14 -139 24 -100 18 -206 26 -217 16z m224 -196 c389 -55 752 -330
927 -704 33 -71 77 -213 68 -221 -3 -3 -160 -51 -349 -106 -379 -111 -700
-209 -884 -271 -66 -22 -133 -44 -150 -48 -16 -4 -102 -34 -190 -65 -88 -31
-189 -67 -225 -80 -104 -36 -418 -150 -505 -183 -407 -154 -623 -237 -670
-257 -16 -7 -91 -36 -165 -65 -74 -28 -144 -56 -155 -60 -99 -45 -725 -283
-730 -278 -1 1 -6 75 -9 163 -4 88 -8 171 -10 185 -2 14 -6 54 -10 90 -10 92
-53 281 -83 365 -107 297 -305 515 -605 662 -65 32 -117 61 -118 65 0 3 15 10
33 13 17 4 124 33 237 65 287 82 665 187 790 220 286 75 629 162 750 190 243
56 355 81 385 86 17 3 55 12 85 19 30 7 71 16 90 19 19 3 78 14 130 25 52 11
113 22 135 25 23 4 52 9 65 12 14 3 34 7 45 8 65 11 164 28 190 32 17 2 41 6
55 9 14 2 43 7 65 10 22 3 51 7 65 10 14 2 43 6 65 10 22 3 47 7 55 10 8 2 33
6 55 10 22 3 78 12 125 20 47 8 128 17 180 21 52 4 96 7 97 8 5 4 88 -3 166
-14z m-4031 -965 c320 -66 559 -246 679 -512 113 -251 149 -470 140 -856 l-1
-48 -32 5 c-18 3 -60 7 -93 11 -33 3 -78 8 -100 10 -22 3 -67 7 -100 10 -33 3
-71 8 -85 10 -14 3 -56 7 -95 11 -38 3 -77 7 -85 9 -8 2 -44 6 -80 10 -36 3
-76 8 -90 10 -14 2 -54 6 -90 10 -36 4 -76 8 -90 10 -14 2 -50 6 -80 10 -30 3
-89 10 -130 15 -41 5 -97 12 -125 15 -52 5 -88 10 -215 25 -41 5 -97 12 -125
15 -50 5 -63 7 -213 25 -46 5 -88 12 -93 15 -18 12 -48 83 -63 151 -18 88 -14
276 8 359 39 144 145 315 262 426 231 218 583 317 896 254z m5033 -201 c-3
-20 -21 -118 -41 -218 -20 -99 -38 -192 -40 -206 -3 -14 -9 -47 -14 -75 -6
-27 -12 -59 -14 -70 -2 -11 -18 -90 -36 -175 -18 -85 -34 -164 -36 -175 -2
-11 -8 -43 -14 -71 -6 -28 -13 -64 -16 -80 -3 -16 -9 -45 -14 -64 -5 -19 -12
-51 -15 -70 -4 -19 -8 -39 -9 -45 -9 -40 -16 -74 -20 -95 -3 -14 -19 -90 -36
-170 -17 -80 -34 -155 -36 -166 -2 -12 -22 -106 -45 -210 -57 -264 -149 -703
-156 -739 -7 -42 -83 -339 -88 -343 -2 -2 -18 -8 -37 -12 -18 -5 -136 -41
-263 -80 -126 -40 -250 -78 -275 -85 -25 -7 -130 -40 -235 -73 -876 -277
-1280 -414 -1947 -656 -191 -69 -352 -126 -357 -126 -5 0 -9 8 -9 18 1 16 -10
180 -17 252 -2 19 -6 71 -10 115 -3 44 -8 100 -10 125 -3 25 -7 72 -10 105 -2
33 -7 87 -10 120 -3 33 -7 87 -10 120 -3 33 -7 81 -10 108 -5 51 -13 124 -21
202 -2 28 -7 66 -9 85 -3 19 -7 60 -10 90 -3 30 -8 80 -11 110 -3 30 -7 66 -9
80 -3 14 -7 52 -10 85 -3 33 -8 74 -10 90 -2 17 -7 58 -10 93 -4 35 -8 72 -10
82 -2 10 -7 50 -10 87 -4 37 -8 75 -10 83 -2 8 -7 44 -10 80 -3 36 -8 76 -10
90 -3 14 -7 45 -10 70 -7 61 -36 280 -39 305 -4 25 11 55 27 55 7 0 154 54
327 121 278 107 824 311 1058 397 71 26 82 28 83 13 0 -9 2 -80 4 -158 l4
-141 -217 -85 c-119 -47 -300 -118 -402 -157 -384 -148 -546 -221 -555 -251
-16 -49 -8 -166 21 -309 17 -85 22 -112 29 -190 3 -30 7 -66 10 -80 2 -14 7
-49 10 -79 4 -30 8 -62 10 -72 2 -10 6 -44 10 -76 3 -32 8 -65 10 -73 2 -8 7
-40 10 -70 3 -30 7 -66 10 -80 2 -14 9 -63 15 -110 6 -47 13 -96 15 -110 4
-24 21 -155 30 -230 2 -19 9 -71 14 -115 6 -44 11 -104 13 -133 2 -64 28 -112
60 -112 13 0 84 16 158 36 74 19 142 37 151 39 24 5 404 114 474 135 262 81
413 129 555 175 140 45 726 235 1115 362 61 20 123 45 139 56 32 23 61 82 70
142 3 22 19 108 36 190 17 83 37 182 45 220 8 39 26 124 40 190 15 66 28 127
30 136 2 9 13 59 24 110 11 52 23 110 26 129 3 19 11 55 16 80 6 25 13 54 15
65 3 11 16 76 29 145 13 69 26 134 29 145 2 11 7 40 11 65 4 25 9 54 11 65 2
10 6 37 9 60 3 22 8 47 10 55 8 26 25 152 31 225 5 66 4 72 -21 102 -39 46
-66 48 -196 13 -121 -33 -360 -106 -394 -120 -11 -5 -60 -23 -110 -40 -49 -18
-148 -54 -220 -80 -128 -47 -130 -48 -136 -27 -3 12 -5 96 -5 186 l1 165 335
112 c184 62 421 138 525 170 105 31 282 85 395 120 113 34 211 63 218 63 10 1
12 -9 7 -35z m-1654 -571 c1 -93 4 -178 14 -378 8 -164 9 -190 19 -341 7 -98
6 -103 -15 -123 -13 -12 -44 -28 -69 -35 -25 -8 -100 -35 -166 -61 -109 -43
-359 -134 -410 -149 -21 -6 -22 -3 -24 81 -1 48 -3 108 -5 133 -6 94 -16 237
-20 280 -5 54 -12 134 -20 250 -3 47 -8 105 -11 130 l-4 45 137 49 c76 26 230
81 343 121 113 40 211 73 218 74 8 1 12 -21 13 -76z m1074 -145 c-16 -74 -62
-303 -90 -457 -3 -14 -7 -35 -9 -46 -2 -11 -7 -40 -12 -65 -4 -25 -8 -47 -9
-50 -1 -3 -5 -25 -9 -50 -5 -25 -10 -54 -12 -65 -2 -11 -8 -45 -14 -75 -6 -30
-12 -66 -15 -80 -8 -41 -44 -233 -49 -260 -11 -62 -77 -376 -101 -485 -15 -66
-33 -129 -40 -141 -21 -33 -127 -78 -340 -144 -356 -109 -445 -138 -785 -250
-284 -94 -449 -146 -785 -245 -27 -9 -59 -17 -70 -19 -60 -12 -203 -51 -294
-82 -58 -18 -106 -33 -107 -31 -2 1 -5 23 -7 47 -6 51 -26 213 -32 250 -4 28
-14 96 -20 137 -2 15 -10 71 -19 123 -8 52 -18 115 -21 140 -3 25 -8 56 -10
70 -10 57 -26 178 -31 225 -3 28 -7 61 -10 75 -2 14 -6 59 -10 100 -3 41 -7
89 -9 105 -3 17 -12 88 -21 159 -18 150 -27 132 96 179 41 16 89 35 105 42 35
15 258 102 430 168 205 79 368 137 382 137 8 0 13 -13 14 -32 0 -18 2 -40 4
-49 1 -9 6 -61 9 -115 11 -180 23 -261 43 -290 11 -15 45 -32 77 -38 15 -3 69
6 119 19 92 24 384 117 422 135 11 5 49 21 85 35 36 15 100 45 143 68 69 37
80 47 102 92 23 48 24 58 25 270 0 121 4 223 8 226 7 7 378 141 422 153 14 4
34 11 45 16 11 5 88 30 170 55 83 26 161 50 175 55 46 16 61 12 55 -12z
m-5434 -463 c31 -3 65 -7 76 -9 10 -2 50 -7 88 -10 39 -4 77 -9 85 -11 8 -2
47 -6 85 -10 39 -3 79 -8 90 -10 11 -3 49 -7 84 -10 36 -3 79 -8 95 -10 17 -2
56 -7 86 -10 30 -4 62 -8 71 -10 9 -1 47 -6 85 -9 39 -4 80 -8 93 -11 12 -2
50 -7 84 -11 34 -4 69 -8 77 -9 40 -5 127 -18 143 -21 10 -2 45 -6 78 -9 33
-4 68 -8 77 -10 9 -1 51 -6 92 -10 41 -4 83 -9 93 -11 19 -3 184 -16 225 -17
15 -1 22 -7 23 -21 0 -12 2 -29 4 -40 2 -10 7 -58 10 -105 4 -47 9 -93 10
-101 1 -8 6 -53 10 -100 4 -47 9 -92 10 -100 3 -14 5 -39 21 -195 2 -27 7 -66
9 -85 2 -19 7 -64 10 -100 4 -36 8 -76 10 -90 2 -14 6 -59 10 -100 3 -41 8
-82 10 -90 2 -8 6 -46 10 -85 11 -113 14 -147 20 -205 3 -30 8 -73 10 -95 2
-22 9 -83 14 -135 6 -52 13 -126 16 -165 3 -38 8 -88 10 -110 3 -22 7 -69 10
-105 3 -36 7 -85 10 -110 2 -25 7 -79 10 -120 3 -41 8 -95 10 -120 3 -25 7
-89 11 -143 l6 -98 -34 15 c-18 8 -222 90 -453 182 -231 91 -438 174 -460 184
-22 10 -110 46 -195 80 -273 109 -318 130 -343 165 -9 13 -55 140 -102 282
-47 142 -103 312 -125 378 -56 172 -73 229 -150 515 -92 339 -156 552 -241
800 -39 113 -73 213 -76 222 -4 13 0 16 18 13 13 -2 49 -6 80 -10z"/>
<path d="M4544 4211 c-70 -23 -110 -55 -144 -114 -48 -83 -41 -139 28 -242 35
-52 35 -50 17 -155 -4 -19 -14 -60 -22 -90 -21 -73 -22 -165 -2 -185 32 -32
83 -30 206 10 136 43 293 113 293 130 0 15 -31 107 -40 120 -29 40 -88 165
-81 169 13 9 39 92 45 144 9 91 -44 187 -117 211 -58 19 -131 20 -183 2z m119
-140 c22 -9 39 -35 42 -66 2 -19 -18 -69 -41 -102 -32 -47 -25 -93 26 -182 36
-63 40 -76 28 -85 -19 -14 -127 -51 -132 -45 -2 2 2 29 10 59 32 121 18 214
-41 280 -12 14 -25 35 -28 47 -6 29 25 71 67 89 38 16 39 16 69 5z"/>
<path d="M864 3370 c-24 -10 -43 -54 -37 -89 2 -13 25 -85 52 -160 27 -75 74
-215 104 -311 136 -430 191 -597 270 -810 81 -222 103 -254 202 -303 70 -35
238 -91 425 -141 30 -8 129 -35 219 -59 187 -51 214 -50 230 6 7 28 5 568 -3
767 -6 138 -19 593 -20 730 -2 156 -10 181 -70 209 -43 20 -77 27 -261 50 -96
12 -153 19 -220 26 -27 3 -84 10 -125 15 -106 13 -158 19 -215 25 -27 3 -66 7
-85 10 -19 3 -57 7 -85 10 -27 2 -70 7 -95 10 -192 21 -264 25 -286 15z m286
-185 c25 -3 61 -8 80 -10 19 -3 60 -7 90 -10 30 -3 71 -7 90 -10 19 -2 66 -7
103 -10 37 -4 76 -8 85 -10 9 -1 53 -6 97 -9 44 -4 91 -9 105 -11 14 -2 54 -7
90 -10 36 -4 79 -8 95 -11 17 -2 50 -6 75 -9 90 -11 93 -12 96 -48 31 -492 53
-1380 35 -1391 -6 -4 -36 2 -66 13 -30 11 -65 23 -79 25 -54 10 -430 129 -528
168 -24 9 -37 35 -108 215 -88 222 -206 558 -265 748 -20 66 -51 165 -70 220
-18 55 -36 115 -40 134 l-7 33 38 -6 c22 -3 59 -8 84 -11z"/>
</g>
</svg>
