<?xml version="1.0" encoding="UTF-8" standalone="no"?>
<!-- Created with Inkscape (http://www.inkscape.org/) -->

<svg
   xmlns:dc="http://purl.org/dc/elements/1.1/"
   xmlns:cc="http://creativecommons.org/ns#"
   xmlns:rdf="http://www.w3.org/1999/02/22-rdf-syntax-ns#"
   xmlns:svg="http://www.w3.org/2000/svg"
   xmlns="http://www.w3.org/2000/svg"
   xmlns:sodipodi="http://sodipodi.sourceforge.net/DTD/sodipodi-0.dtd"
   xmlns:inkscape="http://www.inkscape.org/namespaces/inkscape"
   width="500"
   height="600"
   viewBox="0 0 500 600"
   id="svg4811"
   version="1.1"
   inkscape:version="0.91 r13725"
   sodipodi:docname="chest-white simple.svg">
  <defs
     id="defs4813" />
  <sodipodi:namedview
     id="base"
     pagecolor="#ffffff"
     bordercolor="#666666"
     borderopacity="1.0"
     inkscape:pageopacity="1"
     inkscape:pageshadow="2"
     inkscape:zoom="0.30259198"
     inkscape:cx="99.879596"
     inkscape:cy="246.58282"
     inkscape:document-units="px"
     inkscape:current-layer="layer1"
     showgrid="false"
     inkscape:window-width="1536"
     inkscape:window-height="811"
     inkscape:window-x="-8"
     inkscape:window-y="-8"
     inkscape:window-maximized="1"
     units="px"
     fit-margin-top="10"
     fit-margin-bottom="10"
     showborder="true" />
  <metadata
     id="">
    <rdf:RDF>
      <cc:Work
         rdf:about="">
        <dc:format>image/svg+xml</dc:format>
        <dc:type
           rdf:resource="http://purl.org/dc/dcmitype/StillImage" />
        <dc:title></dc:title>
      </cc:Work>
    </rdf:RDF>
  </metadata>
  <g
     inkscape:label="Vrstva 1"
     inkscape:groupmode="layer"
     id="layer1"
     transform="translate(0,-452.36216)">
    <path
       style="fill:#ffffff"
       d="m 392.62491,549.00456 c -55.05838,7.65953 -110.11507,16.1155 -163.97071,30.13672 -55.47392,13.61055 -109.58129,32.17861 -164.870577,46.44449 -24.855898,6.89456 -47.032549,25.18475 -55.2292082,50.08006 -6.4880018,18.68884 -6.3433329,39.63963 0.985915,58.06829 16.6223762,58.66088 31.2444642,118.10506 52.9244212,175.17474 3.689689,8.27415 13.552416,10.43046 20.771485,14.64453 31.909804,13.90395 64.332494,26.62211 96.509644,39.89889 12.673,7.0854 26.43189,-0.7929 38.78292,-4.3881 47.11201,-16.66822 93.58752,-35.3212 141.50376,-49.56035 27.8176,-8.6777 55.8157,-16.77115 83.53961,-25.74731 10.24347,-38.22316 18.40793,-76.93597 27.31448,-115.47987 8.41631,-39.83971 16.18095,-79.87586 21.93552,-120.18224 1.00538,-19.88138 -5.19185,-40.31232 -17.20703,-56.14844 -15.74277,-18.40577 -35.78657,-35.13872 -60.37304,-39.17773 -7.52626,-1.29292 -15.04483,-2.8839 -22.61719,-3.76368 z m 4.98242,14.2461 c 38.3158,2.59612 73.50089,32.43375 81.66016,70.10351 -47.48101,13.59132 -95.07037,27.53449 -141.44719,44.77733 -53.65759,18.72362 -106.0844,40.91476 -159.20516,60.91017 -0.47761,-29.268 -2.59577,-61.2221 -21.46932,-85.12117 -10.60506,-12.92171 -25.01453,-22.61659 -40.44083,-28.85148 -2.72795,-1.41158 8.1563,-2.46214 10.28674,-3.75614 73.39168,-20.89458 147.07578,-41.52119 222.72302,-52.31613 15.86931,-2.60132 31.86625,-6.32311 47.89258,-5.74609 z M 93.484282,634.71941 c 21.721818,1.46212 44.233048,11.54921 56.171878,30.35547 14.60819,22.51538 16.43039,50.51471 15.36133,76.48632 -47.67071,-4.86841 -95.380417,-10.82944 -142.955082,-16.30468 -5.095612,-6.10665 -5.831015,-14.99179 -6.285157,-22.60742 -0.514734,-29.02907 21.768294,-55.95908 49.669922,-64.0625 9.024293,-2.82288 18.576879,-4.34997 28.037109,-3.86719 z m 383.337888,29.5039 c -10.38677,55.19297 -22.6035,109.97265 -34.16063,164.9253 -2.98415,14.66291 -6.08444,29.23242 -10.16749,43.51806 -69.54792,21.21752 -138.99999,42.89441 -207.22656,68.11914 -8.53192,3.09681 -17.06279,6.19649 -25.58985,9.30665 -4.32041,-62.23331 -11.01401,-124.2913 -19.07435,-186.12384 0.29247,-3.41497 -2.09338,-7.79975 -0.83971,-10.84492 37.03706,-14.12732 74.01543,-28.63842 111.42578,-41.85156 0.16537,7.8444 0.33073,15.6888 0.49609,23.53321 -28.97678,11.92759 -58.84146,21.83526 -87.29101,35.14453 -3.0705,13.74169 3.2222,27.39005 3.77361,41.09205 3.58186,28.74291 7.87942,57.44163 11.34548,86.17155 -0.0591,3.98929 -0.40735,12.14308 5.57622,11.55476 63.90686,-15.73336 125.84694,-38.2493 188.56641,-57.96485 5.93593,-1.75155 8.73282,-7.80606 8.8912,-13.62585 9.01752,-47.11687 21.28819,-93.73432 27.50333,-141.33899 -0.0391,-5.66937 -5.96594,-10.63765 -11.4624,-7.77725 -23.66093,5.96349 -46.63041,14.45001 -69.42041,23.03116 -0.63079,-9.16312 -1.09954,-18.39302 -0.64649,-27.62891 36.72733,-13.03627 73.99108,-24.49038 111.42774,-35.35352 -1.04232,5.3711 -2.08464,10.74219 -3.12696,16.11328 z M 355.9003,693.81706 c 0.30873,20.29423 1.72051,40.6701 3.0957,60.83399 -2.76629,5.00894 -9.97579,4.37108 -14.45396,7.18897 -12.22591,4.6738 -24.36965,9.61687 -36.89174,13.46337 -0.35158,-23.09845 -3.22557,-46.05425 -4.54883,-69.09961 17.5171,-6.29472 35.06052,-12.53512 52.66992,-18.49804 0.043,2.03711 0.0859,4.07422 0.12891,6.11132 z m -25.06446,7.94141 c -11.09646,-0.67631 -22.35343,10.7451 -18.0371,21.85938 1.23173,5.03252 7.87145,7.88897 5.3141,13.68252 -0.78933,7.54406 -5.04252,15.33062 -3.26528,22.96396 4.18118,6.28022 12.68749,1.01175 18.01172,-0.2207 6.97342,-2.03965 13.75064,-4.75387 20.0918,-8.31446 -0.89,-7.98136 -5.99083,-14.5619 -9.56641,-21.32421 4.88612,-7.92622 6.43361,-20.87198 -2.64257,-26.47461 -2.97195,-1.74722 -6.50857,-2.24651 -9.90626,-2.17188 z m 103.94336,8.5957 c -8.50451,42.10838 -15.05364,84.70591 -25.04882,126.39063 -8.25182,6.81319 -19.51498,8.25583 -29.33644,11.91045 -43.37156,12.36657 -85.33594,29.36702 -129.23863,39.71774 -6.62745,1.6642 -13.43991,4.37975 -19.68275,6.10814 -3.01626,-31.58437 -9.91589,-62.60308 -12.42049,-94.2344 -0.81387,-7.5925 -1.75383,-15.17096 -2.83341,-22.73045 25.69868,-10.21212 51.3283,-20.55515 77.4082,-29.74804 1.96301,11.8137 0.90404,24.07086 3.8418,35.68164 4.23237,7.02202 13.72033,3.16384 19.68945,1.33593 16.75863,-5.1097 33.97065,-10.15628 49.05664,-19.21679 6.70643,-5.98388 3.92396,-16.15781 4.61149,-24.01554 -0.0649,-5.67056 -0.18734,-11.34067 -0.18766,-17.01181 21.60563,-8.3161 43.46699,-15.84072 65.73437,-22.17382 -0.53125,2.66211 -1.0625,5.32421 -1.59375,7.98632 z m -102.76171,2.3418 c 6.25659,0.56382 5.95265,8.60668 2.26367,12 -3.49094,3.87475 -2.33774,9.27629 0.76953,12.96484 0.47717,2.49783 5.01038,6.65204 3.05759,8.21314 -3.42249,1.17015 -7.69757,3.18387 -10.70408,3.56225 2.65952,-8.23092 5.17241,-19.30316 -2.06054,-26.00976 -5.43793,-4.93784 1.48124,-10.46932 6.67383,-10.73047 z M 25.165923,738.30144 c 32.524647,4.16511 65.197105,7.10226 97.650617,11.84562 14.77259,1.84539 29.56399,3.60624 44.4197,4.63485 6.0127,64.94209 14.473,129.71652 18.83789,194.73047 C 150.91927,936.18282 116.25573,921.47033 81.365142,907.44402 72.469713,904.60567 72.045545,893.77148 69.142486,886.37566 61.959164,864.70662 54.33359,843.15303 48.690628,820.996 41.188951,793.02515 33.250255,765.10468 23.058501,737.9987 c 0.702474,0.10092 1.404948,0.20183 2.107422,0.30274 z m 27.765625,26.49219 c -5.918894,0.11067 -6.606281,7.88395 -3.884174,11.81943 12.778366,34.6196 21.567628,70.78157 35.811908,104.92275 5.012332,9.71051 16.975538,11.21231 26.154298,14.90235 14.53279,4.03938 29.07545,8.24271 43.67187,11.93554 6.11856,0.47661 5.75113,-7.58349 5.59766,-11.57812 0.37287,-30.97672 -1.68785,-61.90016 -2.03516,-92.88086 -1.44354,-7.84818 2.05225,-16.62106 -1.85937,-23.9043 -4.63005,-5.10969 -12.65494,-4.50904 -18.98995,-5.75978 -28.11573,-3.2171 -56.259483,-7.01381 -84.467082,-9.45701 z m 12.574219,13.72851 c 27.009303,3.61798 54.218293,5.30244 81.154293,9.125 2.05401,33.27508 2.99974,66.64531 3.51301,99.99599 0.25475,4.29792 0.63076,9.23247 -5.06554,5.46916 -16.11709,-4.43654 -32.01558,-9.25013 -47.72676,-15.01007 -11.586,-27.86278 -21.646008,-56.12416 -30.215786,-85.02702 -1.734291,-4.98903 -3.499118,-9.90578 -4.758826,-14.97884 1.033203,0.14193 2.066406,0.28386 3.099609,0.42578 z"
       id="path5365"
       inkscape:connector-curvature="0" />
  </g>
</svg>
