<?xml version="1.0" encoding="UTF-8" standalone="no"?>
<!-- Created with Inkscape (http://www.inkscape.org/) -->

<svg
   xmlns:dc="http://purl.org/dc/elements/1.1/"
   xmlns:cc="http://creativecommons.org/ns#"
   xmlns:rdf="http://www.w3.org/1999/02/22-rdf-syntax-ns#"
   xmlns:svg="http://www.w3.org/2000/svg"
   xmlns="http://www.w3.org/2000/svg"
   xmlns:sodipodi="http://sodipodi.sourceforge.net/DTD/sodipodi-0.dtd"
   xmlns:inkscape="http://www.inkscape.org/namespaces/inkscape"
   width="210mm"
   height="297mm"
   viewBox="0 0 744.09448819 1052.3622047"
   id="svg2"
   version="1.1"
   inkscape:version="0.91 r13725"
   sodipodi:docname="hercules.svg">
  <defs
     id="defs4">
    <clipPath
       clipPathUnits="userSpaceOnUse"
       id="clipPath5825">
      <rect
         style="opacity:0.40100002;fill:#000000;fill-opacity:1;fill-rule:nonzero;stroke:none;stroke-width:1;stroke-miterlimit:4;stroke-dasharray:none;stroke-dashoffset:0;stroke-opacity:1"
         id="rect5827"
         width="248.96227"
         height="259.78671"
         x="189.01147"
         y="69.998802" />
    </clipPath>
  </defs>
  <sodipodi:namedview
     id="base"
     pagecolor="#ffffff"
     bordercolor="#666666"
     borderopacity="1.0"
     inkscape:pageopacity="0.0"
     inkscape:pageshadow="2"
     inkscape:zoom="1.2009852"
     inkscape:cx="371.4108"
     inkscape:cy="905.12713"
     inkscape:document-units="px"
     inkscape:current-layer="layer1"
     showgrid="false"
     inkscape:window-width="1536"
     inkscape:window-height="811"
     inkscape:window-x="-8"
     inkscape:window-y="-8"
     inkscape:window-maximized="1" />
  <metadata
     id="metadata7">
    <rdf:RDF>
      <cc:Work
         rdf:about="">
        <dc:format>image/svg+xml</dc:format>
        <dc:type
           rdf:resource="http://purl.org/dc/dcmitype/StillImage" />
        <dc:title></dc:title>
      </cc:Work>
    </rdf:RDF>
  </metadata>
  <g
     inkscape:label="Vrstva 1"
     inkscape:groupmode="layer"
     id="layer1"
     style="opacity:0.96">
    <path
       style="fill:#000000"
       d="m 189.26782,316.85308 c 0.12401,-7.39062 0.73882,-17.09375 1.36624,-21.5625 0.62742,-4.46875 1.56775,-16.35564 2.08963,-26.4153 0.88469,-17.0534 1.21758,-18.83616 4.92245,-26.36183 3.73937,-7.59573 11.56724,-16.24701 20.67327,-22.84787 l 3.4488,-2.5 -6.35101,-20.625 c -3.49305,-11.34375 -9.48933,-30.30882 -13.32505,-42.14461 -4.43351,-13.68039 -6.70296,-22.59962 -6.22992,-24.48439 2.0433,-8.14115 11.91083,-14.54566 22.48453,-14.59355 6.60277,-0.0299 13.94235,2.79981 15.10229,5.82258 0.40247,1.04881 3.84597,20.53036 7.65223,43.29232 3.80626,22.76197 7.15651,41.62144 7.445,41.90994 0.2885,0.28848 3.68529,-0.75832 7.54843,-2.32625 l 7.02388,-2.85079 -0.99709,-4.50013 c -0.5484,-2.47506 -0.86806,-10.03305 -0.71035,-16.79552 0.26181,-11.22658 0.11437,-12.12302 -1.69616,-10.3125 -4.05247,4.05247 -4.68923,2.38952 -3.90746,-10.2046 0.41609,-6.70313 1.6295,-15.28125 2.69646,-19.0625 2.95388,-10.46832 3.09201,-11.25 1.98796,-11.25 -0.56384,0 -1.72542,0.84375 -2.58128,1.875 -2.46173,2.9662 -3.7525,2.20706 -3.71944,-2.1875 0.0557,-7.41164 2.53116,-15.23293 6.93161,-21.90103 3.47929,-5.27226 4.0922,-7.066365 3.06788,-8.980315 -0.70403,-1.31549 -1.28005,-4.67878 -1.28005,-7.47397 0,-5.43789 3.17987,-9.96221 7.1875,-10.22637 1.20312,-0.0793 3.03125,-0.22506 4.0625,-0.32391 1.03125,-0.0988 3.28125,0.16544 5,0.58731 1.97403,0.48453 4.96655,-0.16524 8.125,-1.76419 7.82681,-3.96228 16.4112,-5.39176 30.625,-5.09969 13.28769,0.27304 20.19326,1.8992 28.24905,6.65224 2.51989,1.48676 4.54328,1.92484 5.65074,1.22341 2.80369,-1.77576 11.57357,-1.28533 14.57207,0.8149 3.08608,2.16157 3.78068,9.00449 1.51809,14.95555 -1.07595,2.829955 -0.60919,4.368665 3.19468,10.531415 4.62977,7.50081 8.06537,16.99337 8.06537,22.28458 0,2.97577 -0.0946,3.00807 -3.08102,1.05133 -1.69457,-1.11032 -3.3065,-2.01876 -3.58209,-2.01876 -0.27559,0 0.58526,3.23437 1.91301,7.1875 3.77665,11.24433 5.64551,22.76867 5.29705,32.66437 -0.176,4.99832 -0.6779,9.44574 -1.11533,9.88317 -0.43742,0.43743 -1.88711,0.11349 -3.22151,-0.71986 -3.45997,-2.16079 -3.71011,-1.98568 -3.71011,2.5972 0,2.2618 -0.84375,7.35175 -1.875,11.31098 -1.03125,3.95924 -1.875,7.6583 -1.875,8.22014 0,0.56184 3.23437,2.20989 7.1875,3.66232 3.95312,1.45245 8.7531,3.99999 10.66661,5.66119 1.91352,1.6612 5.56977,3.40641 8.125,3.87824 8.27445,1.52787 19.61904,7.8236 25.5788,14.19509 10.81965,11.56706 14.42673,22.40112 15.26013,45.83466 0.31786,8.9375 0.85683,17.54959 1.19771,19.13799 0.34087,1.58838 0.97491,10.72901 1.40898,20.3125 l 0.78918,17.42451 -44.97888,0 -44.97889,0 6.78736,-10.14041 c 11.65257,-17.4091 23.01983,-43.72174 25.04976,-57.98459 0.39139,-2.75 1.18403,-6.24571 1.76141,-7.76825 0.57739,-1.52254 0.58018,-3.05849 0.006,-3.41323 -0.57397,-0.35473 -2.28963,2.77242 -3.81258,6.94923 -6.98833,19.16614 -26.41237,52.44981 -38.76194,66.41975 l -5.24881,5.9375 -12.94145,0 -12.94145,0 8.8323,-9.0625 c 30.30552,-31.0954 52.33483,-69.24104 54.43996,-94.26745 0.77241,-9.18265 0.0461,-12.65419 -3.42723,-16.38243 -3.90786,-4.1946 -5.16045,-3.47003 -4.36485,2.52488 0.9462,7.12971 -3.10152,22.48435 -9.29115,35.24502 -13.08606,26.97854 -42.72546,64.35121 -63.71097,80.33389 -1.47015,1.11968 -11.46244,1.53973 -37.3202,1.56884 -19.42188,0.0219 -35.3125,-0.24903 -35.3125,-0.60199 0,-0.35295 1.92691,-3.30607 4.28201,-6.5625 2.90235,-4.0131 6.6239,-7.12901 11.55043,-9.67076 7.54895,-3.89474 9.16848,-6.01633 11.92744,-15.625 l 1.61507,-5.625 9.04767,-0.36696 c 7.11122,-0.28843 9.29971,-0.8379 10.22528,-2.56735 1.98198,-3.70337 -0.22064,-5.06987 -10.57772,-6.56242 -5.46988,-0.78825 -10.42749,-1.87497 -11.01693,-2.41492 -2.08332,-1.90845 4.31193,-3.80817 11.17558,-3.31972 7.06214,0.50257 10.52112,-1.04423 10.52112,-4.70486 0,-3.46232 -3.96359,-4.8705 -14.17764,-5.03698 -17.80563,-0.29024 -17.83402,-4.34913 -0.0307,-4.38265 8.99333,-0.0169 10.23972,-0.29834 10.79933,-2.43828 0.34794,-1.33052 -0.23467,-3.65736 -1.29469,-5.17075 -1.83835,-2.6246 -2.50993,-2.71511 -14.54933,-1.96086 -6.94211,0.43492 -13.862,1.13316 -15.37754,1.55165 -3.19887,0.8833 -4.44881,4.36731 -10.43917,29.09757 -4.04111,16.68312 -4.07017,16.74647 -12.04156,26.25001 -4.39486,5.23958 -9.51461,11.91614 -11.37721,14.83678 -2.37298,3.72096 -4.246,5.31094 -6.2582,5.3125 -2.83157,0.002 -2.86851,-0.18537 -2.64619,-13.43526 z m 107.70964,-16.4448 c 3.15549,-0.16945 20.21169,-17.61829 29.93237,-30.62144 7.15016,-9.56461 21.00084,-32.498 21.00084,-34.77234 0,-0.41371 -3.51563,0.0846 -7.8125,1.10742 -4.29688,1.02278 -8.65625,2.04512 -9.6875,2.27186 -1.03125,0.22672 -3.42188,0.80724 -5.3125,1.29002 -2.94879,0.753 -3.4375,0.49929 -3.4375,-1.78451 0,-3.32471 2.60045,-4.49617 16.75012,-7.54569 6.11883,-1.31871 11.60959,-3.13798 12.2017,-4.04283 1.29317,-1.97617 1.08953,-21.02019 -0.22476,-21.02019 -0.50652,0 -1.64852,0.87667 -2.53778,1.94816 -3.05415,3.68003 -16.70221,13.4193 -22.2342,15.86638 -4.08278,1.806 -7.25247,2.28615 -12.0727,1.8288 -7.49043,-0.71072 -9.42556,-1.59098 -17.01229,-7.73861 -3.0223,-2.44902 -7.60447,-6.16121 -10.18259,-8.24932 l -4.6875,-3.79657 0,6.70667 c 0,8.72318 -1.56877,10.51443 -10,11.41815 -3.78125,0.40531 -8.28125,1.02014 -10,1.36628 -1.71875,0.34613 -4.46673,0.89761 -6.10663,1.2255 -1.6399,0.32788 -3.17646,0.79098 -3.41457,1.0291 -0.23812,0.23811 0.54112,4.30398 1.73163,9.03527 2.05906,8.18304 2.37782,8.65405 6.53957,9.66314 4.58589,1.11191 10,6.06136 10,9.14175 0,0.99291 1.09363,1.8053 2.43029,1.8053 1.33667,0 4.00854,1.35814 5.9375,3.0181 3.34577,2.87916 3.5063,3.51791 3.48737,13.8765 -0.0208,11.39779 -0.13759,11.65903 -7.25491,16.2304 -1.07039,0.6875 -2.12146,3.21875 -2.33571,5.625 -0.37834,4.24923 -0.24579,4.39296 4.61046,5 4.29164,0.53645 11.13203,0.57734 19.69179,0.11775 z m 0.5765,-63.21905 c -12.98088,-3.7919 -21.21199,-6.99663 -20.30357,-7.90504 2.15182,-2.15182 26.10653,1.87319 31.26537,5.2534 3.60938,2.36495 4.19676,5.81515 0.95741,5.6237 -1.20313,-0.0711 -6.56677,-1.40854 -11.91921,-2.97206 z m -23.39329,30.52757 c 0,-3.9705 -0.45138,-4.92622 -2.32659,-4.92622 -2.11174,0 -2.20876,0.51486 -1.0507,5.5756 1.51712,6.62985 3.37729,6.27219 3.37729,-0.64938 z m 32.05357,-84.30122 c 2.53234,-2.53234 16.56245,-2.56038 19.89502,-0.0397 3.2527,2.46022 4.30141,2.36476 4.30141,-0.39151 0,-4.28277 -4.34873,-6.69377 -12.74951,-7.06854 -8.02296,-0.35792 -11.67966,0.72564 -14.39824,4.26648 -3.30137,4.29992 -0.82656,7.01121 2.95132,3.23332 z m -4.90224,-18.0435 c 2.25427,-1.12111 2.63545,-2.08511 2.02714,-5.12667 -0.59228,-2.96137 -0.099,-4.34851 2.35528,-6.62304 3.09087,-2.86453 3.63246,-6.55107 1.63949,-11.15989 -0.89539,-2.0706 -1.20353,-2.04806 -5.12368,0.37473 l -4.171,2.57782 -1.9933,-3.85462 c -1.09632,-2.12004 -2.67212,-3.76889 -3.50178,-3.66412 -3.71118,0.46866 -5.88348,-0.24642 -5.88348,-1.93673 0,-1.00706 0.98437,-2.33394 2.1875,-2.94861 2.9018,-1.48253 18.35913,-0.68476 21.73462,1.12175 2.51782,1.34749 2.61982,2.04218 1.8321,12.47703 -0.76808,10.17455 -0.63943,11.15432 1.62363,12.36547 3.78148,2.02379 7.28456,1.57321 9.94152,-1.27872 2.81658,-3.02323 4.57928,-1.41051 3.43622,3.14384 -0.59018,2.35143 -0.043,3.19213 2.86046,4.39478 1.97464,0.81792 5.16783,3.13376 7.09596,5.1463 1.92815,2.01255 3.87377,3.65918 4.3236,3.65918 0.44984,0 0.92172,-2.93354 1.04861,-6.51898 0.1359,-3.83943 1.11653,-7.76087 2.38576,-9.54034 4.71732,-6.61372 5.24356,-8.54773 5.2616,-19.33742 0.0182,-10.9025 -0.0125,-11.01068 -2.79408,-10 -4.09079,1.48612 -23.38754,1.12727 -28.0678,-0.52195 -2.90028,-1.02199 -5.31431,-1.04155 -8.75,-0.0709 -2.60958,0.73728 -10.28198,1.3788 -17.04977,1.4256 l -12.30507,0.0851 0.43007,10.0727 c 0.37968,8.89247 0.90608,10.79109 4.49257,16.20375 3.35463,5.06275 4.06574,7.3461 4.0811,13.10425 l 0.0186,6.97319 4.04391,-4.58138 c 2.22414,-2.51975 5.29325,-5.20271 6.82023,-5.96212 z m 28.72297,-22.24291 c -1.6528,-1.65281 -2.6148,-1.76639 -5.15557,-0.60874 -2.96063,1.34896 -3.16733,1.19031 -3.96097,-3.0402 -0.5949,-3.17103 -0.33721,-4.78018 0.88995,-5.55739 2.85124,-1.80583 21.56442,-1.35898 24.21365,0.5782 2.26525,1.65638 2.25564,1.75516 -0.30391,3.125 -1.4537,0.77799 -3.82272,1.41454 -5.2645,1.41454 -1.44177,0 -2.95119,0.85938 -3.35424,1.90972 -1.28317,3.34388 -4.81124,4.43204 -7.06441,2.17887 z m -20.8743,-20.64547 c 5.8661,-1.21521 6.66363,-5.70306 1.70643,-9.6024 -1.81147,-1.42489 -4.611,-2.59072 -6.22119,-2.59072 -1.84434,0 -3.71532,-1.27194 -5.05646,-3.4375 -3.00496,-4.85217 -5.40512,-6.5625 -9.20936,-6.5625 -4.21069,0 -5.18551,-1.010575 -3.68297,-3.818105 1.62826,-3.04243 13.95384,-2.9837 17.15457,0.0817 1.75546,1.68127 3.03758,1.858 6.53442,0.90076 2.39275,-0.655 7.33741,-0.83985 10.98815,-0.41078 4.05331,0.47638 7.66407,0.23084 9.27378,-0.63066 1.44986,-0.77593 5.66329,-1.62772 9.36322,-1.89286 5.2631,-0.37716 6.8908,-0.0555 7.47924,1.47794 0.93805,2.44451 -0.53886,3.97002 -4.57983,4.730585 -5.24476,0.98713 -6.79463,1.95964 -8.84213,5.54827 -1.43824,2.52079 -3.08106,3.53263 -6.1103,3.76345 -5.19122,0.39556 -5.89293,0.84133 -8.12789,5.16326 -1.51802,2.93553 -1.54192,3.8752 -0.14703,5.78281 1.39537,1.9083 3.47011,2.27772 12.79193,2.27772 9.31628,0 11.96438,-0.47096 16.27718,-2.89489 9.07145,-5.09844 10.4694,-13.54763 3.84574,-23.243455 -7.06944,-10.34836 -19.24396,-14.31608 -32.10449,-10.46297 -3.59822,1.07805 -5.95808,0.96417 -10.99085,-0.5304 -9.67231,-2.87237 -17.92092,-0.79542 -25.76626,6.48778 -7.44703,6.91344 -9.62205,17.372315 -4.9358,23.734475 4.33543,5.88588 18.10925,8.66626 30.3599,6.12844 z"
       id="path4147"
       inkscape:connector-curvature="0"
       clip-path="url(#clipPath5825)"
       inkscape:export-xdpi="90"
       inkscape:export-ydpi="90" />
  </g>
</svg>
