<!DOCTYPE svg PUBLIC "-//W3C//DTD SVG 1.1//EN" "http://www.w3.org/Graphics/SVG/1.1/DTD/svg11.dtd">
<!-- Uploaded to: SVG Repo, www.svgrepo.com, Transformed by: SVG Repo Mixer Tools -->
<svg width="100px" height="100px" viewBox="0 0 24 24" fill="none" xmlns="http://www.w3.org/2000/svg" stroke="">
<g id="SVGRepo_bgCarrier" stroke-width="0"/>
<g id="SVGRepo_tracerCarrier" stroke-linecap="round" stroke-linejoin="round"/>
<g id="SVGRepo_iconCarrier"> <path d="M20.62 20.13H3.39999C2.94555 20.13 2.50957 19.9502 2.18729 19.6298C1.86501 19.3094 1.68263 18.8744 1.67999 18.42V7.62C1.68263 6.62624 2.07857 5.67395 2.78126 4.97126C3.48395 4.26857 4.43624 3.87263 5.42999 3.87H18.59C19.5846 3.87 20.5384 4.26508 21.2416 4.96834C21.9449 5.67161 22.34 6.62543 22.34 7.62V18.42C22.3374 18.8744 22.155 19.3094 21.8327 19.6298C21.5104 19.9502 21.0744 20.13 20.62 20.13ZM5.42999 5.37C4.83326 5.37 4.26096 5.60705 3.839 6.02901C3.41705 6.45096 3.17999 7.02326 3.17999 7.62V18.42C3.17996 18.4484 3.18571 18.4766 3.19688 18.5027C3.20805 18.5289 3.22442 18.5525 3.24499 18.5721C3.26556 18.5918 3.28991 18.607 3.31655 18.617C3.3432 18.6269 3.37159 18.6313 3.39999 18.63H20.62C20.6484 18.6313 20.6768 18.6269 20.7034 18.617C20.7301 18.607 20.7544 18.5918 20.775 18.5721C20.7956 18.5525 20.8119 18.5289 20.8231 18.5027C20.8343 18.4766 20.84 18.4484 20.84 18.42V7.62C20.84 7.02326 20.6029 6.45096 20.181 6.02901C19.759 5.60705 19.1867 5.37 18.59 5.37H5.42999Z" fill="#ffffff"/> <path d="M12 15.54C11.3003 15.538 10.6168 15.3287 10.036 14.9386C9.45518 14.5484 9.00301 13.9948 8.73661 13.3478C8.47021 12.7008 8.40153 11.9893 8.53925 11.3033C8.67697 10.6172 9.0149 9.98742 9.51038 9.49334C10.0059 8.99926 10.6366 8.6631 11.3231 8.52732C12.0095 8.39153 12.7207 8.46222 13.367 8.73044C14.0133 8.99867 14.5656 9.4524 14.9541 10.0343C15.3426 10.6163 15.55 11.3003 15.55 12C15.5474 12.9398 15.1722 13.8402 14.5067 14.5038C13.8412 15.1674 12.9398 15.54 12 15.54ZM12 10C11.6044 10 11.2178 10.1173 10.8889 10.3371C10.56 10.5568 10.3036 10.8692 10.1522 11.2346C10.0009 11.6001 9.96126 12.0022 10.0384 12.3902C10.1156 12.7782 10.3061 13.1345 10.5858 13.4142C10.8655 13.6939 11.2219 13.8844 11.6098 13.9616C11.9978 14.0388 12.3999 13.9991 12.7654 13.8478C13.1308 13.6964 13.4432 13.44 13.6629 13.1111C13.8827 12.7823 14 12.3956 14 12C14 11.4696 13.7893 10.9609 13.4142 10.5858C13.0391 10.2107 12.5304 10 12 10Z" fill="#ffffff"/> <path d="M21.58 12.75H14.79C14.5911 12.75 14.4003 12.671 14.2596 12.5303C14.119 12.3897 14.04 12.1989 14.04 12C14.04 11.8011 14.119 11.6103 14.2596 11.4697C14.4003 11.329 14.5911 11.25 14.79 11.25H21.58C21.7789 11.25 21.9697 11.329 22.1103 11.4697C22.251 11.6103 22.33 11.8011 22.33 12C22.33 12.1989 22.251 12.3897 22.1103 12.5303C21.9697 12.671 21.7789 12.75 21.58 12.75Z" fill="#ffffff"/> <path d="M9.21999 12.75H2.42999C2.23108 12.75 2.04031 12.671 1.89966 12.5303C1.75901 12.3897 1.67999 12.1989 1.67999 12C1.67999 11.8011 1.75901 11.6103 1.89966 11.4697C2.04031 11.329 2.23108 11.25 2.42999 11.25H9.21999C9.41891 11.25 9.60967 11.329 9.75032 11.4697C9.89097 11.6103 9.96999 11.8011 9.96999 12C9.96999 12.1989 9.89097 12.3897 9.75032 12.5303C9.60967 12.671 9.41891 12.75 9.21999 12.75Z" fill="#ffffff"/> </g>
</svg>